<?xml version="1.0" encoding="UTF-8" standalone="no"?>
<!DOCTYPE svg PUBLIC "-//W3C//DTD SVG 1.1//EN" "http://www.w3.org/Graphics/SVG/1.1/DTD/svg11.dtd">
<svg width="100%" height="100%" viewBox="0 0 280 65" version="1.1" xmlns="http://www.w3.org/2000/svg" xmlns:xlink="http://www.w3.org/1999/xlink" xml:space="preserve" xmlns:serif="http://www.serif.com/" style="fill-rule:evenodd;clip-rule:evenodd;stroke-linecap:round;stroke-linejoin:round;stroke-miterlimit:1.5;">
    <g transform="matrix(1.7153,0,0,2.14915,-83.5023,-33.9431)">
        <rect x="48.717" y="15.794" width="163.2" height="30.245" style="fill:none;stroke:rgb(237,128,116);stroke-width:3.43px;"/>
    </g>
    <g transform="matrix(1,0,0,1,-3.67891,2.18475)">
        <g transform="matrix(23.2573,0,0,23.2573,258.885,38.432)">
        </g>
        <text x="77.92px" y="38.432px" style="font-family:'VarelaRound-Regular', 'Varela Round';font-size:23.257px;fill:rgb(237,128,116);">PT<tspan x="107.155px 122.853px " y="38.432px 38.432px ">CG</tspan> P<tspan x="161.112px " y="38.432px ">A</tspan>IRINGS</text>
    </g>
    <g transform="matrix(1.24697,0,0,1.36103,-12.0976,-10.3056)">
        <path d="M60.229,7.572L60.229,55.33L9.702,55.33L9.702,7.572L60.229,7.572ZM32.149,19.996C31.707,19.996 31.329,20.137 31.015,20.42C30.7,20.702 30.543,21.05 30.543,21.462L30.543,28.436L24.188,28.436C22.419,28.436 20.935,28.648 19.736,29.072C18.538,29.495 17.583,30.06 16.873,30.766C16.163,31.473 15.651,32.249 15.337,33.097C15.023,33.944 14.865,34.802 14.865,35.671C14.865,36.54 15.023,37.398 15.337,38.246C15.651,39.093 16.163,39.87 16.873,40.576C17.583,41.282 18.538,41.847 19.736,42.27C20.935,42.694 22.419,42.906 24.188,42.906L32.149,42.906C32.592,42.906 32.964,42.759 33.267,42.466C33.569,42.172 33.721,41.819 33.721,41.407L33.721,21.462C33.721,21.05 33.569,20.702 33.267,20.42C32.964,20.137 32.592,19.996 32.149,19.996ZM30.543,31.239L30.543,40.103L24.502,40.103C22.757,40.103 21.418,39.88 20.487,39.435C19.556,38.99 18.916,38.43 18.567,37.757C18.217,37.083 18.043,36.388 18.043,35.671C18.043,34.976 18.217,34.286 18.567,33.602C18.916,32.917 19.556,32.352 20.487,31.907C21.418,31.462 22.757,31.239 24.502,31.239L30.543,31.239ZM37.781,42.906C38.223,42.906 38.602,42.764 38.916,42.482C39.23,42.2 39.387,41.852 39.387,41.439L39.387,34.465L45.742,34.465C47.511,34.465 48.995,34.253 50.194,33.83C51.393,33.406 52.347,32.841 53.057,32.135C53.767,31.429 54.279,30.652 54.594,29.805C54.908,28.958 55.065,28.1 55.065,27.231C55.065,26.362 54.908,25.503 54.594,24.656C54.279,23.809 53.767,23.032 53.057,22.326C52.347,21.62 51.393,21.055 50.194,20.631C48.995,20.208 47.511,19.996 45.742,19.996L37.781,19.996C37.339,19.996 36.966,20.143 36.664,20.436C36.361,20.729 36.21,21.082 36.21,21.495L36.21,41.439C36.21,41.852 36.361,42.2 36.664,42.482C36.966,42.764 37.339,42.906 37.781,42.906ZM39.387,31.663L39.387,22.799L45.428,22.799C47.174,22.799 48.512,23.021 49.443,23.467C50.375,23.912 51.015,24.471 51.364,25.145C51.713,25.818 51.888,26.514 51.888,27.231C51.888,27.926 51.713,28.616 51.364,29.3C51.015,29.984 50.375,30.549 49.443,30.995C48.512,31.44 47.174,31.663 45.428,31.663L39.387,31.663Z" style="fill:rgb(237,128,116);"/>
    </g>
    <g transform="matrix(1.29547,-0.182506,0.160333,1.13808,1.41126,46.7824)">
        <g transform="matrix(28.2562,0,0,28.2562,206.12,37.0598)">
        </g>
        <text x="154.835px" y="37.06px" style="font-family:'SignPainter-HouseScript', 'SignPainter';font-size:28.256px;fill:rgb(205,95,83);">alp<tspan x="183.968px " y="37.06px ">h</tspan>a</text>
    </g>
</svg>
