<?xml version="1.0" encoding="UTF-8" standalone="no"?>
<!DOCTYPE svg PUBLIC "-//W3C//DTD SVG 1.1//EN" "http://www.w3.org/Graphics/SVG/1.1/DTD/svg11.dtd">
<svg width="100%" height="100%" viewBox="0 0 145 145" version="1.1" xmlns="http://www.w3.org/2000/svg" xmlns:xlink="http://www.w3.org/1999/xlink" xml:space="preserve" xmlns:serif="http://www.serif.com/" style="fill-rule:evenodd;clip-rule:evenodd;stroke-linejoin:round;stroke-miterlimit:2;">
    <g>
        <circle cx="72.387" cy="72.386" r="72.386" style="fill:rgb(9,193,255);"/>
        <g>
            <g>
                <clipPath id="_clip1">
                    <circle cx="72.387" cy="72.386" r="72.386"/>
                </clipPath>
                <g clip-path="url(#_clip1)">
                    <g>
                        <path d="M107.053,116.94C102.387,108.107 72.387,102.564 72.387,102.564C72.387,102.564 42.387,108.107 37.721,116.94C34.272,129.198 31.387,144.773 31.387,144.773L113.387,144.773C113.387,144.773 111.438,128.073 107.053,116.94Z" style="fill:rgb(241,201,165);fill-rule:nonzero;"/>
                        <path d="M72.387,102.564C72.387,102.564 102.387,108.107 107.053,116.94C111.439,128.073 113.387,144.773 113.387,144.773L72.387,144.773L72.387,102.564Z" style="fill:rgb(228,182,146);fill-rule:nonzero;"/>
                        <rect x="64.22" y="84.606" width="16.334" height="27.336" style="fill:rgb(241,201,165);"/>
                        <rect x="72.387" y="84.606" width="8.167" height="27.336" style="fill:rgb(228,182,146);"/>
                        <path d="M64.22,97.273C65.689,101.49 71.617,103.907 75.971,103.907C77.546,103.907 79.078,103.643 80.554,103.16L80.554,84.606L64.22,84.606L64.22,97.273Z" style="fill:rgb(221,172,140);fill-opacity:0.1;fill-rule:nonzero;"/>
                        <path d="M93.387,67.357C93.387,50.283 83.985,40.574 72.387,40.574C60.789,40.574 51.387,50.283 51.387,67.357C51.387,90.323 60.789,98.274 72.387,98.274C83.984,98.274 93.387,89.366 93.387,67.357Z" style="fill:rgb(241,201,165);fill-rule:nonzero;"/>
                        <path d="M90.19,79.197C86.383,78.799 83.813,74.697 84.458,70.041C85.095,65.381 88.7,61.921 92.509,62.317C96.314,62.713 98.88,66.813 98.238,71.473C97.599,76.134 93.997,79.591 90.19,79.197Z" style="fill:rgb(228,182,146);fill-rule:nonzero;"/>
                        <path d="M46.685,71.474C46.042,66.814 48.609,62.714 52.412,62.318C56.222,61.922 59.828,65.381 60.467,70.042C61.11,74.698 58.537,78.8 54.733,79.198C50.925,79.591 47.323,76.134 46.685,71.474Z" style="fill:rgb(241,201,165);fill-rule:nonzero;"/>
                        <path d="M93.387,67.357C93.387,50.283 83.985,40.574 72.387,40.574L72.387,98.274C83.984,98.274 93.387,89.366 93.387,67.357Z" style="fill:rgb(228,182,146);fill-rule:nonzero;"/>
                    </g>
                    <path d="M91.277,81.668C90.147,84.844 88.236,88.662 84.783,88.662C80.467,88.662 77.38,85.154 72.429,85.154C72.415,85.154 72.402,85.156 72.388,85.156C72.373,85.156 72.36,85.154 72.345,85.154C67.395,85.154 64.309,88.662 59.991,88.662C56.538,88.662 54.628,84.844 53.498,81.668L52.52,75.55L52.52,82.871C52.52,82.871 54.161,91.493 57.31,93.576C59.875,95.855 68.248,99.759 72.343,99.759L72.344,99.759C72.358,99.759 72.372,99.757 72.387,99.757C72.401,99.757 72.415,99.759 72.428,99.759L72.43,99.759C76.526,99.759 84.899,95.856 87.463,93.576C90.612,91.493 92.253,82.871 92.253,82.871L92.253,75.55L91.277,81.668Z" style="fill:rgb(48,48,48);fill-rule:nonzero;"/>
                    <path d="M62.218,43.841C62.218,43.841 66.118,59.628 87.85,67.614C85.806,64.085 85.435,59.813 85.435,59.813C85.435,59.813 88.964,63.528 94.721,66.5C97.879,60.186 101.594,50.713 93.236,45.513C84.878,40.312 65.004,31.024 62.218,43.841Z" style="fill:rgb(48,48,48);fill-rule:nonzero;"/>
                    <path d="M54.975,66.314C54.975,66.314 56.588,48.291 63.303,44.304C57.575,41.805 48.846,49.412 49.774,54.055C50.703,58.699 54.975,66.314 54.975,66.314Z" style="fill:rgb(48,48,48);fill-rule:nonzero;"/>
                    <path d="M107.053,116.94C104.327,111.782 92.971,107.749 83.988,105.284C83.636,111.394 78.586,116.244 72.387,116.244C66.189,116.244 61.138,111.394 60.787,105.284C51.804,107.749 40.447,111.782 37.721,116.94C34.272,129.198 31.387,144.773 31.387,144.773L113.387,144.773C113.387,144.773 111.438,128.073 107.053,116.94Z" style="fill:rgb(251,98,30);fill-rule:nonzero;"/>
                    <path d="M60.114,108.284C60.486,114.394 65.829,119.244 72.386,119.244C78.944,119.244 84.286,114.394 84.658,108.284C92.891,110.419 102.998,113.733 107.43,117.934C107.306,117.598 107.18,117.266 107.051,116.94C104.325,111.782 92.969,107.749 83.986,105.284C83.634,111.394 78.584,116.244 72.385,116.244C66.187,116.244 61.136,111.394 60.785,105.284C51.802,107.749 40.445,111.782 37.719,116.94C37.638,117.229 37.557,117.522 37.476,117.814C41.976,113.671 51.96,110.398 60.114,108.284Z" style="fill:rgb(229,61,12);fill-opacity:0.2;fill-rule:nonzero;"/>
                    <path d="M57.37,106.269C58.508,113.549 64.788,119.125 72.387,119.125C79.986,119.125 86.266,113.549 87.404,106.269C86.243,105.917 85.097,105.589 83.988,105.285C83.636,111.395 78.586,116.245 72.387,116.245C66.189,116.245 61.138,111.395 60.787,105.285C59.677,105.589 58.531,105.917 57.37,106.269Z" style="fill:rgb(229,61,12);fill-rule:nonzero;"/>
                    <path d="M75.804,90.657C75.804,90.657 75.304,88.431 72.387,88.431C69.72,88.431 68.97,90.657 68.97,90.657L75.804,90.657Z" style="fill:white;fill-rule:nonzero;"/>
                </g>
            </g>
        </g>
    </g>
</svg>
